<svg width="676" height="550" viewBox="0 0 676 550" fill="none" xmlns="http://www.w3.org/2000/svg">
<g filter="url(#filter0_d_2392_5801)">
<path d="M352.219 142.114C358.146 145.528 361.109 150.682 361.109 157.575C361.109 163.309 359.08 168.011 355.021 171.683C350.963 175.355 345.97 177.191 340.043 177.191H311.344V109.549H338.014C343.812 109.549 348.676 111.353 352.606 114.96C356.6 118.503 358.597 123.045 358.597 128.585C358.597 134.19 356.471 138.7 352.219 142.114ZM338.014 122.014H324.679V136.896H338.014C340.076 136.896 341.783 136.187 343.136 134.77C344.553 133.353 345.261 131.581 345.261 129.455C345.261 127.329 344.585 125.558 343.232 124.14C341.879 122.723 340.14 122.014 338.014 122.014ZM340.043 164.726C342.298 164.726 344.166 163.985 345.648 162.503C347.13 160.957 347.871 159.025 347.871 156.705C347.871 154.451 347.13 152.582 345.648 151.101C344.166 149.555 342.298 148.782 340.043 148.782H324.679V164.726H340.043ZM399.358 128.875H412.693L395.106 177.191C392.594 184.149 389.244 189.174 385.057 192.266C380.934 195.423 375.78 196.84 369.595 196.518V184.922C372.945 184.986 375.587 184.278 377.519 182.796C379.516 181.314 381.095 178.931 382.254 175.645L362.445 128.875H376.07L388.632 161.344L399.358 128.875ZM446.262 140.858H435.343V160.957C435.343 162.632 435.762 163.856 436.599 164.629C437.437 165.402 438.661 165.853 440.271 165.982C441.882 166.046 443.879 166.014 446.262 165.885V177.191C437.694 178.158 431.639 177.352 428.096 174.776C424.617 172.199 422.877 167.593 422.877 160.957V140.858H414.47V128.875H422.877V119.115L435.343 115.347V128.875H446.262V140.858ZM464.074 158.155C465.749 164.21 470.291 167.238 477.7 167.238C482.467 167.238 486.074 165.628 488.522 162.407L498.572 168.205C493.805 175.098 486.783 178.544 477.506 178.544C469.518 178.544 463.108 176.128 458.277 171.297C453.445 166.465 451.029 160.377 451.029 153.033C451.029 145.754 453.413 139.698 458.18 134.867C462.947 129.971 469.067 127.522 476.54 127.522C483.626 127.522 489.456 129.971 494.03 134.867C498.669 139.763 500.988 145.818 500.988 153.033C500.988 154.644 500.827 156.351 500.505 158.155H464.074ZM463.881 148.492H488.522C487.814 145.206 486.332 142.758 484.077 141.148C481.887 139.537 479.375 138.732 476.54 138.732C473.19 138.732 470.42 139.602 468.23 141.341C466.039 143.016 464.59 145.399 463.881 148.492ZM351.736 228.304H324.679V244.345H350.963V257.101H324.679V283.191H311.344V215.549H351.736V228.304ZM367.057 229.077C364.996 229.077 363.192 228.337 361.646 226.855C360.164 225.309 359.423 223.505 359.423 221.443C359.423 219.382 360.164 217.578 361.646 216.032C363.192 214.486 364.996 213.713 367.057 213.713C369.183 213.713 370.987 214.486 372.469 216.032C374.015 217.578 374.788 219.382 374.788 221.443C374.788 223.505 374.015 225.309 372.469 226.855C370.987 228.337 369.183 229.077 367.057 229.077ZM360.873 283.191V234.875H373.338V283.191H360.873ZM411.612 233.522C416.894 233.522 421.243 235.294 424.657 238.837C428.136 242.38 429.875 247.276 429.875 253.525V283.191H417.409V255.071C417.409 251.85 416.54 249.402 414.8 247.727C413.061 245.988 410.742 245.118 407.843 245.118C404.622 245.118 402.045 246.117 400.112 248.114C398.18 250.111 397.213 253.107 397.213 257.101V283.191H384.748V234.875H397.213V240.287C400.241 235.777 405.041 233.522 411.612 233.522ZM477.239 234.875H489.705V283.191H477.239V277.49C473.503 282.193 468.252 284.544 461.488 284.544C455.046 284.544 449.506 282.096 444.867 277.2C440.293 272.24 438.006 266.184 438.006 259.033C438.006 251.883 440.293 245.859 444.867 240.963C449.506 236.003 455.046 233.522 461.488 233.522C468.252 233.522 473.503 235.874 477.239 240.577V234.875ZM454.241 268.89C456.753 271.402 459.942 272.659 463.807 272.659C467.673 272.659 470.861 271.402 473.374 268.89C475.951 266.313 477.239 263.028 477.239 259.033C477.239 255.039 475.951 251.786 473.374 249.274C470.861 246.697 467.673 245.408 463.807 245.408C459.942 245.408 456.753 246.697 454.241 249.274C451.728 251.786 450.472 255.039 450.472 259.033C450.472 263.028 451.728 266.313 454.241 268.89ZM527.872 233.522C533.155 233.522 537.503 235.294 540.917 238.837C544.396 242.38 546.136 247.276 546.136 253.525V283.191H533.67V255.071C533.67 251.85 532.8 249.402 531.061 247.727C529.322 245.988 527.002 245.118 524.103 245.118C520.882 245.118 518.305 246.117 516.373 248.114C514.44 250.111 513.474 253.107 513.474 257.101V283.191H501.008V234.875H513.474V240.287C516.502 235.777 521.301 233.522 527.872 233.522ZM579.778 284.544C572.498 284.544 566.41 282.096 561.514 277.2C556.683 272.304 554.267 266.249 554.267 259.033C554.267 251.818 556.683 245.763 561.514 240.867C566.41 235.971 572.498 233.522 579.778 233.522C584.481 233.522 588.765 234.65 592.63 236.905C596.495 239.159 599.426 242.187 601.423 245.988L590.697 252.269C589.731 250.272 588.249 248.694 586.252 247.534C584.32 246.375 582.129 245.795 579.681 245.795C575.945 245.795 572.853 247.051 570.405 249.563C567.957 252.011 566.733 255.168 566.733 259.033C566.733 262.834 567.957 265.991 570.405 268.503C572.853 270.951 575.945 272.175 579.681 272.175C582.194 272.175 584.416 271.628 586.349 270.533C588.346 269.373 589.828 267.795 590.794 265.798L601.617 271.982C599.491 275.783 596.495 278.843 592.63 281.162C588.765 283.417 584.481 284.544 579.778 284.544ZM617.988 264.155C619.663 270.21 624.204 273.238 631.613 273.238C636.38 273.238 639.987 271.628 642.435 268.407L652.485 274.205C647.718 281.098 640.696 284.544 631.419 284.544C623.431 284.544 617.021 282.128 612.19 277.297C607.358 272.465 604.942 266.377 604.942 259.033C604.942 251.754 607.326 245.698 612.093 240.867C616.86 235.971 622.98 233.522 630.453 233.522C637.539 233.522 643.37 235.971 647.944 240.867C652.582 245.763 654.901 251.818 654.901 259.033C654.901 260.644 654.74 262.351 654.418 264.155H617.988ZM617.794 254.492H642.435C641.727 251.206 640.245 248.758 637.99 247.148C635.8 245.537 633.288 244.732 630.453 244.732C627.103 244.732 624.333 245.602 622.143 247.341C619.952 249.016 618.503 251.399 617.794 254.492Z" fill="white"/>
</g>
<ellipse cx="199.972" cy="202.675" rx="199.479" ry="202.175" fill="#D9D9D9" fill-opacity="0.2"/>
<path d="M199.972 4.12598C308.093 4.12602 395.825 92.9732 395.825 202.675C395.825 312.377 308.093 401.225 199.972 401.225C91.8505 401.225 4.11816 312.377 4.11816 202.675C4.11831 92.9732 91.8506 4.12598 199.972 4.12598Z" stroke="white" stroke-opacity="0.1" stroke-width="7.25173"/>
<circle cx="199.967" cy="202.679" r="161.74" fill="#D9D9D9" fill-opacity="0.2"/>
<circle cx="199.967" cy="202.679" r="158.114" stroke="white" stroke-opacity="0.3" stroke-width="7.25173" stroke-dasharray="19.34 19.34"/>
<path d="M252.554 139.268V155.544H275.612V183.755H250.927C248.033 199.85 240.98 212.148 229.768 220.647C218.556 228.966 202.189 233.125 180.669 233.125V243.976C180.669 251.029 182.025 256.544 184.738 260.523C187.451 264.321 192.153 266.22 198.844 266.22C205.173 266.22 209.694 264.321 212.407 260.523C215.12 256.725 216.476 251.029 216.476 243.433H259.336C258.612 261.698 253.187 275.895 243.06 286.022C233.113 296.149 218.736 301.213 199.929 301.213C179.674 301.213 164.122 295.968 153.271 285.479C142.602 274.81 137.267 258.895 137.267 237.737V202.744C156.074 202.744 169.909 202.382 178.77 201.659C187.812 200.754 194.504 199.036 198.844 196.505C203.365 193.792 206.349 189.542 207.795 183.755H132.113V155.544H209.152V139.268H132.113V108.072H275.612V139.268H252.554Z" fill="white" fill-opacity="0.7"/>
<defs>
<filter id="filter0_d_2392_5801" x="291.039" y="98.913" width="384.164" height="215.605" filterUnits="userSpaceOnUse" color-interpolation-filters="sRGB">
<feFlood flood-opacity="0" result="BackgroundImageFix"/>
<feColorMatrix in="SourceAlpha" type="matrix" values="0 0 0 0 0 0 0 0 0 0 0 0 0 0 0 0 0 0 127 0" result="hardAlpha"/>
<feOffset dy="9.66897"/>
<feGaussianBlur stdDeviation="10.1524"/>
<feComposite in2="hardAlpha" operator="out"/>
<feColorMatrix type="matrix" values="0 0 0 0 0 0 0 0 0 0 0 0 0 0 0 0 0 0 0.8 0"/>
<feBlend mode="normal" in2="BackgroundImageFix" result="effect1_dropShadow_2392_5801"/>
<feBlend mode="normal" in="SourceGraphic" in2="effect1_dropShadow_2392_5801" result="shape"/>
</filter>
</defs>
</svg>
