<svg width="929" height="899" viewBox="0 0 929 899" fill="none" xmlns="http://www.w3.org/2000/svg">
<path d="M10.3432 750V630.995H57.2945C66.3206 630.995 74.0103 632.719 80.3634 636.166C86.7165 639.575 91.5589 644.321 94.8904 650.403C98.2607 656.446 99.9458 663.419 99.9458 671.322C99.9458 679.224 98.2413 686.197 94.8323 692.241C91.4233 698.284 86.4841 702.991 80.0147 706.361C73.5841 709.731 65.7977 711.416 56.6553 711.416H26.7297V691.253H52.5878C57.4301 691.253 61.4202 690.42 64.558 688.754C67.7346 687.05 70.0976 684.706 71.6472 681.723C73.2355 678.701 74.0296 675.234 74.0296 671.322C74.0296 667.37 73.2355 663.923 71.6472 660.979C70.0976 657.996 67.7346 655.691 64.558 654.064C61.3814 652.398 57.3526 651.565 52.4715 651.565H35.504V750H10.3432ZM154.713 751.743C145.686 751.743 137.881 749.826 131.295 745.991C124.748 742.117 119.693 736.732 116.129 729.837C112.565 722.902 110.783 714.864 110.783 705.722C110.783 696.502 112.565 688.444 116.129 681.549C119.693 674.615 124.748 669.23 131.295 665.395C137.881 661.521 145.686 659.584 154.713 659.584C163.739 659.584 171.525 661.521 178.072 665.395C184.658 669.23 189.732 674.615 193.296 681.549C196.86 688.444 198.642 696.502 198.642 705.722C198.642 714.864 196.86 722.902 193.296 729.837C189.732 736.732 184.658 742.117 178.072 745.991C171.525 749.826 163.739 751.743 154.713 751.743ZM154.829 732.568C158.935 732.568 162.363 731.405 165.114 729.081C167.864 726.718 169.937 723.503 171.332 719.435C172.765 715.368 173.482 710.738 173.482 705.547C173.482 700.356 172.765 695.727 171.332 691.66C169.937 687.592 167.864 684.377 165.114 682.014C162.363 679.651 158.935 678.469 154.829 678.469C150.684 678.469 147.197 679.651 144.369 682.014C141.58 684.377 139.469 687.592 138.036 691.66C136.641 695.727 135.944 700.356 135.944 705.547C135.944 710.738 136.641 715.368 138.036 719.435C139.469 723.503 141.58 726.718 144.369 729.081C147.197 731.405 150.684 732.568 154.829 732.568ZM289 686.197L266.338 687.592C265.951 685.655 265.118 683.912 263.839 682.362C262.561 680.774 260.876 679.515 258.784 678.585C256.731 677.617 254.271 677.133 251.404 677.133C247.569 677.133 244.335 677.946 241.7 679.573C239.066 681.161 237.749 683.292 237.749 685.965C237.749 688.096 238.601 689.897 240.306 691.369C242.01 692.841 244.935 694.023 249.08 694.914L265.234 698.168C273.912 699.95 280.381 702.816 284.642 706.768C288.903 710.719 291.034 715.91 291.034 722.341C291.034 728.19 289.31 733.323 285.862 737.739C282.453 742.155 277.766 745.603 271.8 748.082C265.873 750.523 259.036 751.743 251.288 751.743C239.473 751.743 230.059 749.283 223.048 744.364C216.075 739.405 211.988 732.664 210.787 724.142L235.134 722.864C235.87 726.466 237.652 729.217 240.48 731.115C243.308 732.974 246.93 733.904 251.346 733.904C255.685 733.904 259.171 733.071 261.806 731.405C264.479 729.701 265.835 727.512 265.873 724.839C265.835 722.592 264.885 720.752 263.026 719.319C261.167 717.847 258.3 716.723 254.426 715.949L238.969 712.869C230.253 711.126 223.764 708.104 219.503 703.804C215.281 699.504 213.169 694.023 213.169 687.36C213.169 681.626 214.719 676.687 217.818 672.542C220.956 668.397 225.353 665.201 231.008 662.954C236.703 660.707 243.366 659.584 250.998 659.584C262.271 659.584 271.142 661.966 277.611 666.731C284.119 671.496 287.916 677.985 289 686.197ZM354.096 660.746V679.341H300.346V660.746H354.096ZM312.549 639.362H337.303V722.573C337.303 724.859 337.651 726.641 338.348 727.919C339.046 729.159 340.014 730.03 341.254 730.534C342.532 731.037 344.004 731.289 345.67 731.289C346.832 731.289 347.994 731.192 349.157 730.999C350.319 730.766 351.21 730.592 351.83 730.476L355.723 748.896C354.483 749.283 352.74 749.729 350.493 750.232C348.246 750.775 345.515 751.104 342.3 751.22C336.334 751.453 331.104 750.659 326.611 748.838C322.156 747.017 318.689 744.189 316.209 740.354C313.73 736.519 312.51 731.677 312.549 725.827V639.362ZM449.596 669.462C448.783 666.634 447.64 664.136 446.168 661.966C444.696 659.758 442.895 657.899 440.764 656.388C438.672 654.838 436.27 653.657 433.558 652.843C430.886 652.03 427.922 651.623 424.668 651.623C418.586 651.623 413.24 653.134 408.63 656.156C404.059 659.177 400.495 663.574 397.938 669.346C395.382 675.079 394.103 682.091 394.103 690.381C394.103 698.671 395.362 705.722 397.88 711.532C400.398 717.343 403.962 721.779 408.572 724.839C413.182 727.861 418.625 729.372 424.9 729.372C430.595 729.372 435.457 728.364 439.486 726.35C443.553 724.297 446.652 721.411 448.783 717.692C450.952 713.973 452.037 709.576 452.037 704.501L457.15 705.257H426.469V686.314H476.268V701.305C476.268 711.765 474.06 720.752 469.644 728.268C465.227 735.744 459.145 741.516 451.398 745.584C443.65 749.613 434.779 751.627 424.784 751.627C413.627 751.627 403.827 749.167 395.382 744.247C386.936 739.289 380.351 732.258 375.625 723.154C370.937 714.012 368.594 703.165 368.594 690.614C368.594 680.968 369.988 672.368 372.777 664.814C375.605 657.221 379.557 650.79 384.632 645.522C389.706 640.253 395.614 636.244 402.354 633.493C409.095 630.743 416.397 629.368 424.261 629.368C431.002 629.368 437.277 630.356 443.088 632.331C448.899 634.268 454.051 637.019 458.545 640.583C463.077 644.147 466.777 648.388 469.644 653.308C472.51 658.189 474.35 663.574 475.164 669.462H449.596ZM494.703 750V660.746H518.701V676.319H519.631C521.258 670.779 523.989 666.596 527.824 663.768C531.659 660.901 536.076 659.468 541.073 659.468C542.312 659.468 543.649 659.545 545.082 659.7C546.516 659.855 547.775 660.068 548.859 660.339V682.304C547.697 681.956 546.09 681.646 544.036 681.374C541.983 681.103 540.104 680.968 538.4 680.968C534.758 680.968 531.504 681.762 528.638 683.35C525.81 684.9 523.563 687.069 521.897 689.858C520.27 692.647 519.457 695.863 519.457 699.504V750H494.703ZM584.552 751.685C578.858 751.685 573.783 750.697 569.328 748.722C564.873 746.707 561.348 743.744 558.752 739.831C556.195 735.88 554.917 730.96 554.917 725.072C554.917 720.113 555.827 715.949 557.648 712.578C559.469 709.208 561.948 706.496 565.086 704.443C568.224 702.39 571.788 700.841 575.778 699.795C579.807 698.749 584.029 698.013 588.445 697.587C593.636 697.044 597.82 696.541 600.997 696.076C604.173 695.572 606.478 694.836 607.912 693.868C609.345 692.899 610.062 691.466 610.062 689.568V689.219C610.062 685.539 608.899 682.692 606.575 680.677C604.29 678.663 601.035 677.656 596.813 677.656C592.358 677.656 588.813 678.643 586.179 680.619C583.545 682.556 581.802 684.996 580.949 687.941L558.055 686.081C559.217 680.658 561.503 675.97 564.912 672.019C568.321 668.029 572.717 664.969 578.102 662.838C583.526 660.669 589.801 659.584 596.929 659.584C601.888 659.584 606.633 660.165 611.166 661.327C615.737 662.489 619.785 664.291 623.31 666.731C626.874 669.172 629.683 672.31 631.736 676.145C633.789 679.941 634.816 684.493 634.816 689.8V750H611.34V737.623H610.643C609.209 740.412 607.292 742.872 604.89 745.003C602.488 747.095 599.602 748.741 596.232 749.942C592.862 751.104 588.968 751.685 584.552 751.685ZM591.641 734.601C595.283 734.601 598.498 733.885 601.287 732.451C604.076 730.979 606.265 729.004 607.853 726.524C609.442 724.045 610.236 721.237 610.236 718.099V708.627C609.461 709.131 608.396 709.596 607.04 710.022C605.723 710.409 604.231 710.777 602.566 711.126C600.9 711.436 599.234 711.726 597.568 711.997C595.903 712.23 594.392 712.443 593.036 712.637C590.131 713.063 587.593 713.741 585.424 714.67C583.254 715.6 581.569 716.859 580.368 718.447C579.167 719.997 578.567 721.934 578.567 724.258C578.567 727.628 579.787 730.205 582.228 731.987C584.707 733.73 587.845 734.601 591.641 734.601ZM686.909 751.453C680.13 751.453 673.99 749.709 668.489 746.223C663.027 742.698 658.688 737.526 655.473 730.708C652.296 723.851 650.708 715.445 650.708 705.489C650.708 695.262 652.355 686.759 655.647 679.98C658.94 673.162 663.318 668.068 668.78 664.697C674.281 661.288 680.305 659.584 686.851 659.584C691.849 659.584 696.013 660.436 699.345 662.141C702.715 663.806 705.427 665.898 707.48 668.416C709.572 670.896 711.16 673.336 712.245 675.738H713V630.995H737.696V750H713.291V735.705H712.245C711.082 738.185 709.436 740.645 707.305 743.085C705.214 745.487 702.482 747.482 699.112 749.07C695.781 750.659 691.713 751.453 686.909 751.453ZM694.754 731.754C698.744 731.754 702.114 730.669 704.865 728.5C707.654 726.292 709.785 723.212 711.257 719.261C712.768 715.31 713.523 710.68 713.523 705.373C713.523 700.066 712.787 695.456 711.315 691.543C709.843 687.631 707.712 684.609 704.923 682.478C702.134 680.348 698.744 679.283 694.754 679.283C690.686 679.283 687.258 680.387 684.469 682.595C681.68 684.803 679.568 687.863 678.135 691.776C676.702 695.688 675.985 700.221 675.985 705.373C675.985 710.564 676.702 715.155 678.135 719.145C679.607 723.096 681.718 726.195 684.469 728.442C687.258 730.65 690.686 731.754 694.754 731.754Z" fill="url(#paint0_linear_2488_1411)"/>
<g filter="url(#filter0_d_2488_1411)">
<g clip-path="url(#paint1_angular_2488_1411_clip_path)" data-figma-skip-parse="true"><g transform="matrix(0.180258 -0.142348 0.151497 0.192838 377.5 249.794)"><foreignObject x="-1392.78" y="-1392.78" width="2785.56" height="2785.56"><div xmlns="http://www.w3.org/1999/xhtml" style="background:conic-gradient(from 90deg,rgba(0, 92, 95, 1) 0deg,rgba(1, 171, 181, 1) 360deg);height:100%;width:100%;opacity:1"></div></foreignObject></g></g><path d="M412.666 21.9811C434.14 24.4723 446.077 46.601 440.103 67.4293L401.443 202.196C397.252 216.806 401.862 231.863 412.129 241.67C418.267 240.065 424.933 240.212 431.37 242.474L575.285 293.066C581.717 295.327 587.011 299.381 590.805 304.473C598.67 313.766 601.577 326.545 596.399 338.708C593.475 345.578 590.189 352.371 586.537 359.063C525.782 470.39 386.454 511.717 275.339 451.369C164.224 391.022 123.399 251.852 184.154 140.525C230.45 55.6918 322.371 11.5056 412.666 21.9811Z" data-figma-gradient-fill="{&#34;type&#34;:&#34;GRADIENT_ANGULAR&#34;,&#34;stops&#34;:[{&#34;color&#34;:{&#34;r&#34;:0.0,&#34;g&#34;:0.36078432202339172,&#34;b&#34;:0.37254902720451355,&#34;a&#34;:1.0},&#34;position&#34;:0.0},{&#34;color&#34;:{&#34;r&#34;:0.0039215688593685627,&#34;g&#34;:0.67058825492858887,&#34;b&#34;:0.70980393886566162,&#34;a&#34;:1.0},&#34;position&#34;:1.0}],&#34;stopsVar&#34;:[],&#34;transform&#34;:{&#34;m00&#34;:360.51641845703125,&#34;m01&#34;:302.99401855468750,&#34;m02&#34;:45.744758605957031,&#34;m10&#34;:-284.69519042968750,&#34;m11&#34;:385.6760253906250,&#34;m12&#34;:199.30332946777344},&#34;opacity&#34;:1.0,&#34;blendMode&#34;:&#34;NORMAL&#34;,&#34;visible&#34;:true}"/>
</g>
<g filter="url(#filter1_d_2488_1411)">
<path d="M235.105 231.67C244.757 144.738 323.053 82.0878 409.986 91.7388C496.919 101.39 559.569 179.688 549.918 266.621C540.267 353.553 461.97 416.202 375.037 406.551C354.612 404.284 335.528 398.225 318.407 389.158L320.352 498.057C320.753 520.559 302.838 539.126 280.336 539.528C257.834 539.93 239.266 522.014 238.864 499.512L234.824 273.207C234.788 271.197 234.9 269.219 235.146 267.283C233.821 255.687 233.763 243.762 235.105 231.67Z" fill="url(#paint2_linear_2488_1411)"/>
</g>
<g filter="url(#filter2_d_2488_1411)">
<path d="M421.028 184.125C437.564 177.545 454.048 193.73 447.773 210.384L438.461 235.091L579.62 295.429C595.676 302.292 603.129 320.87 596.266 336.926C589.403 352.981 570.823 360.433 554.768 353.57L416.144 294.317L407.372 317.595C401.097 334.249 378.031 335.53 369.95 319.673L331.334 243.904C325.857 233.157 330.804 220.027 342.012 215.568L421.028 184.125Z" fill="#006D71"/>
</g>
<path d="M148.951 867V787.019H180.506C186.573 787.019 191.741 788.178 196.011 790.495C200.28 792.786 203.535 795.975 205.774 800.063C208.039 804.124 209.171 808.811 209.171 814.122C209.171 819.433 208.026 824.12 205.735 828.181C203.444 832.243 200.124 835.406 195.776 837.671C191.454 839.936 186.221 841.069 180.077 841.069H159.964V827.517H177.343C180.598 827.517 183.279 826.957 185.388 825.838C187.523 824.692 189.111 823.117 190.153 821.112C191.22 819.082 191.754 816.752 191.754 814.122C191.754 811.466 191.22 809.149 190.153 807.171C189.111 805.166 187.523 803.617 185.388 802.523C183.253 801.404 180.546 800.844 177.265 800.844H165.862V867H148.951ZM219.843 867V807.014H236.479V867H219.843ZM228.2 799.282C225.727 799.282 223.605 798.462 221.834 796.821C220.09 795.155 219.218 793.163 219.218 790.846C219.218 788.555 220.09 786.589 221.834 784.949C223.605 783.283 225.727 782.45 228.2 782.45C230.674 782.45 232.782 783.283 234.527 784.949C236.297 786.589 237.182 788.555 237.182 790.846C237.182 793.163 236.297 795.155 234.527 796.821C232.782 798.462 230.674 799.282 228.2 799.282ZM266.443 832.321V867H249.806V807.014H265.662V817.598H266.365C267.693 814.109 269.919 811.349 273.043 809.318C276.167 807.262 279.955 806.233 284.407 806.233C288.573 806.233 292.205 807.144 295.303 808.967C298.402 810.789 300.81 813.393 302.528 816.778C304.246 820.136 305.106 824.146 305.106 828.806V867H288.469V831.774C288.495 828.103 287.558 825.239 285.657 823.182C283.757 821.099 281.14 820.058 277.807 820.058C275.568 820.058 273.59 820.54 271.871 821.503C270.179 822.466 268.851 823.872 267.888 825.721C266.951 827.543 266.469 829.743 266.443 832.321ZM334.854 832.321V867H318.218V807.014H334.073V817.598H334.776C336.104 814.109 338.33 811.349 341.454 809.318C344.579 807.262 348.367 806.233 352.819 806.233C356.985 806.233 360.617 807.144 363.715 808.967C366.813 810.789 369.221 813.393 370.94 816.778C372.658 820.136 373.517 824.146 373.517 828.806V867H356.88V831.774C356.906 828.103 355.969 825.239 354.069 823.182C352.168 821.099 349.551 820.058 346.219 820.058C343.98 820.058 342.001 820.54 340.283 821.503C338.591 822.466 337.263 823.872 336.299 825.721C335.362 827.543 334.88 829.743 334.854 832.321ZM403.734 868.133C399.907 868.133 396.497 867.469 393.503 866.141C390.508 864.787 388.139 862.795 386.395 860.166C384.677 857.51 383.817 854.204 383.817 850.246C383.817 846.914 384.429 844.115 385.653 841.85C386.877 839.585 388.543 837.762 390.652 836.382C392.761 835.002 395.156 833.961 397.837 833.258C400.545 832.555 403.383 832.06 406.351 831.774C409.84 831.41 412.652 831.071 414.787 830.759C416.921 830.42 418.471 829.926 419.434 829.275C420.397 828.624 420.879 827.66 420.879 826.385V826.15C420.879 823.677 420.098 821.763 418.536 820.41C417 819.056 414.813 818.379 411.975 818.379C408.981 818.379 406.598 819.043 404.828 820.37C403.058 821.672 401.886 823.312 401.313 825.291L385.926 824.041C386.707 820.397 388.243 817.246 390.535 814.591C392.826 811.909 395.781 809.852 399.4 808.42C403.045 806.962 407.262 806.233 412.053 806.233C415.385 806.233 418.575 806.624 421.621 807.405C424.693 808.186 427.414 809.397 429.783 811.037C432.178 812.677 434.066 814.786 435.446 817.363C436.826 819.915 437.515 822.974 437.515 826.541V867H421.738V858.682H421.269C420.306 860.556 419.017 862.209 417.403 863.641C415.789 865.047 413.849 866.154 411.584 866.961C409.319 867.742 406.703 868.133 403.734 868.133ZM408.499 856.651C410.946 856.651 413.107 856.169 414.982 855.206C416.856 854.217 418.327 852.889 419.395 851.223C420.462 849.556 420.996 847.669 420.996 845.56V839.194C420.475 839.533 419.759 839.845 418.848 840.131C417.963 840.392 416.96 840.639 415.841 840.873C414.721 841.082 413.602 841.277 412.482 841.459C411.363 841.615 410.347 841.759 409.436 841.889C407.484 842.175 405.778 842.631 404.32 843.256C402.862 843.881 401.73 844.727 400.923 845.794C400.116 846.836 399.712 848.137 399.712 849.699C399.712 851.965 400.532 853.696 402.172 854.894C403.839 856.065 405.947 856.651 408.499 856.651ZM477.525 868.172C471.381 868.172 466.096 866.87 461.67 864.266C457.27 861.637 453.885 857.992 451.516 853.331C449.173 848.671 448.001 843.308 448.001 837.241C448.001 831.097 449.186 825.708 451.555 821.073C453.95 816.413 457.348 812.781 461.748 810.178C466.148 807.548 471.381 806.233 477.447 806.233C482.681 806.233 487.263 807.184 491.194 809.084C495.125 810.985 498.237 813.653 500.528 817.09C502.819 820.527 504.082 824.562 504.316 829.197H488.617C488.174 826.202 487.002 823.794 485.102 821.972C483.227 820.123 480.767 819.199 477.721 819.199C475.143 819.199 472.891 819.902 470.965 821.308C469.064 822.688 467.58 824.705 466.512 827.361C465.445 830.017 464.911 833.232 464.911 837.007C464.911 840.834 465.432 844.089 466.473 846.77C467.541 849.452 469.038 851.496 470.965 852.902C472.891 854.308 475.143 855.011 477.721 855.011C479.621 855.011 481.327 854.62 482.837 853.839C484.373 853.058 485.636 851.925 486.625 850.441C487.64 848.931 488.304 847.122 488.617 845.013H504.316C504.056 849.595 502.806 853.631 500.567 857.12C498.354 860.582 495.295 863.29 491.389 865.243C487.484 867.195 482.863 868.172 477.525 868.172ZM531.604 787.019V867H514.968V787.019H531.604ZM572.269 868.172C566.098 868.172 560.787 866.922 556.335 864.422C551.909 861.897 548.498 858.33 546.103 853.722C543.708 849.088 542.51 843.607 542.51 837.281C542.51 831.11 543.708 825.695 546.103 821.034C548.498 816.374 551.87 812.742 556.218 810.139C560.592 807.535 565.721 806.233 571.605 806.233C575.562 806.233 579.246 806.871 582.657 808.147C586.093 809.397 589.087 811.284 591.639 813.81C594.216 816.335 596.221 819.511 597.653 823.339C599.085 827.14 599.801 831.592 599.801 836.695V841.264H549.149V830.954H584.141C584.141 828.559 583.62 826.437 582.579 824.588C581.537 822.74 580.092 821.295 578.244 820.253C576.421 819.186 574.299 818.652 571.878 818.652C569.353 818.652 567.114 819.238 565.161 820.41C563.234 821.555 561.724 823.104 560.631 825.057C559.537 826.983 558.977 829.131 558.951 831.501V841.303C558.951 844.271 559.498 846.836 560.592 848.996C561.711 851.157 563.286 852.824 565.317 853.995C567.348 855.167 569.756 855.753 572.542 855.753C574.39 855.753 576.083 855.492 577.619 854.972C579.155 854.451 580.47 853.67 581.563 852.628C582.657 851.587 583.49 850.311 584.063 848.801L599.45 849.817C598.669 853.514 597.067 856.742 594.646 859.502C592.251 862.236 589.153 864.37 585.351 865.907C581.576 867.417 577.215 868.172 572.269 868.172Z" fill="white"/>
<defs>
<filter id="filter0_d_2488_1411" x="124.279" y="0.276806" width="506.442" height="522.104" filterUnits="userSpaceOnUse" color-interpolation-filters="sRGB">
<feFlood flood-opacity="0" result="BackgroundImageFix"/>
<feColorMatrix in="SourceAlpha" type="matrix" values="0 0 0 0 0 0 0 0 0 0 0 0 0 0 0 0 0 0 127 0" result="hardAlpha"/>
<feOffset dy="11.5349"/>
<feGaussianBlur stdDeviation="15.8605"/>
<feComposite in2="hardAlpha" operator="out"/>
<feColorMatrix type="matrix" values="0 0 0 0 0 0 0 0 0 0 0 0 0 0 0 0 0 0 0.25 0"/>
<feBlend mode="normal" in2="BackgroundImageFix" result="effect1_dropShadow_2488_1411"/>
<feBlend mode="normal" in="SourceGraphic" in2="effect1_dropShadow_2488_1411" result="shape"/>
</filter>
<clipPath id="paint1_angular_2488_1411_clip_path"><path d="M412.666 21.9811C434.14 24.4723 446.077 46.601 440.103 67.4293L401.443 202.196C397.252 216.806 401.862 231.863 412.129 241.67C418.267 240.065 424.933 240.212 431.37 242.474L575.285 293.066C581.717 295.327 587.011 299.381 590.805 304.473C598.67 313.766 601.577 326.545 596.399 338.708C593.475 345.578 590.189 352.371 586.537 359.063C525.782 470.39 386.454 511.717 275.339 451.369C164.224 391.022 123.399 251.852 184.154 140.525C230.45 55.6918 322.371 11.5056 412.666 21.9811Z"/></clipPath><filter id="filter1_d_2488_1411" x="196.637" y="64.8043" width="391.75" height="523.753" filterUnits="userSpaceOnUse" color-interpolation-filters="sRGB">
<feFlood flood-opacity="0" result="BackgroundImageFix"/>
<feColorMatrix in="SourceAlpha" type="matrix" values="0 0 0 0 0 0 0 0 0 0 0 0 0 0 0 0 0 0 127 0" result="hardAlpha"/>
<feOffset dy="11.5349"/>
<feGaussianBlur stdDeviation="18.7442"/>
<feComposite in2="hardAlpha" operator="out"/>
<feColorMatrix type="matrix" values="0 0 0 0 0 0 0 0 0 0 0 0 0 0 0 0 0 0 0.25 0"/>
<feBlend mode="normal" in2="BackgroundImageFix" result="effect1_dropShadow_2488_1411"/>
<feBlend mode="normal" in="SourceGraphic" in2="effect1_dropShadow_2488_1411" result="shape"/>
</filter>
<filter id="filter2_d_2488_1411" x="300.256" y="165.321" width="327.401" height="231.175" filterUnits="userSpaceOnUse" color-interpolation-filters="sRGB">
<feFlood flood-opacity="0" result="BackgroundImageFix"/>
<feColorMatrix in="SourceAlpha" type="matrix" values="0 0 0 0 0 0 0 0 0 0 0 0 0 0 0 0 0 0 127 0" result="hardAlpha"/>
<feOffset dy="11.5349"/>
<feGaussianBlur stdDeviation="14.4186"/>
<feComposite in2="hardAlpha" operator="out"/>
<feColorMatrix type="matrix" values="0 0 0 0 0 0 0 0 0 0 0 0 0 0 0 0 0 0 0.25 0"/>
<feBlend mode="normal" in2="BackgroundImageFix" result="effect1_dropShadow_2488_1411"/>
<feBlend mode="normal" in="SourceGraphic" in2="effect1_dropShadow_2488_1411" result="shape"/>
</filter>
<linearGradient id="paint0_linear_2488_1411" x1="20.2838" y1="682.831" x2="726.132" y2="676.693" gradientUnits="userSpaceOnUse">
<stop stop-color="#15C070"/>
<stop offset="1" stop-color="#01A2AB"/>
</linearGradient>
<linearGradient id="paint2_linear_2488_1411" x1="314.493" y1="38.7705" x2="335.754" y2="533.438" gradientUnits="userSpaceOnUse">
<stop stop-color="white"/>
<stop offset="0.122971" stop-color="#60D59E"/>
<stop offset="1" stop-color="#13C06F"/>
</linearGradient>
</defs>
</svg>
